<svg xmlns="http://www.w3.org/2000/svg" xmlns:xlink="http://www.w3.org/1999/xlink" width="533.4177856445312px" height="725.45703125px" x="0px" y="0px" style="enable-background:new 0 0 1400 980" viewBox="0 0 533.4177856445312 725.45703125"><defs><linearGradient xlink:href="#a" id="l" x1="-262.15311" x2="-226.65335" y1="292.93674" y2="292.84225" gradientTransform="translate(-.532 -23.386)" gradientUnits="userSpaceOnUse"/><linearGradient id="a"><stop offset="0" style="stop-color:#777;stop-opacity:1"/><stop offset="0.5" style="stop-color:#fff;stop-opacity:1"/><stop offset="1" style="stop-color:#777;stop-opacity:1"/></linearGradient><linearGradient xlink:href="#a" id="b" x1="-262.15311" x2="-226.65335" y1="292.93674" y2="292.84225" gradientTransform="translate(-.532 -23.386)" gradientUnits="userSpaceOnUse"/><linearGradient xlink:href="#a" id="c" x1="-262.15311" x2="-226.65335" y1="292.93674" y2="292.84225" gradientTransform="translate(-.532 -23.386)" gradientUnits="userSpaceOnUse"/><linearGradient xlink:href="#a" id="d" x1="-262.15311" x2="-226.65335" y1="292.93674" y2="292.84225" gradientTransform="translate(-.532 -23.386)" gradientUnits="userSpaceOnUse"/><linearGradient xlink:href="#a" id="e" x1="-262.15311" x2="-226.65335" y1="292.93674" y2="292.84225" gradientTransform="translate(-.532 -23.386)" gradientUnits="userSpaceOnUse"/><linearGradient xlink:href="#a" id="f" x1="-262.15311" x2="-226.65335" y1="292.93674" y2="292.84225" gradientTransform="translate(-.532 -23.386)" gradientUnits="userSpaceOnUse"/><linearGradient xlink:href="#a" id="g" x1="-262.15311" x2="-226.65335" y1="292.93674" y2="292.84225" gradientTransform="translate(-.532 -23.386)" gradientUnits="userSpaceOnUse"/><linearGradient xlink:href="#a" id="h" x1="-262.15311" x2="-226.65335" y1="292.93674" y2="292.84225" gradientTransform="translate(-.532 -23.386)" gradientUnits="userSpaceOnUse"/><linearGradient xlink:href="#a" id="i" x1="-262.15311" x2="-226.65335" y1="292.93674" y2="292.84225" gradientTransform="translate(-.532 -23.386)" gradientUnits="userSpaceOnUse"/><linearGradient xlink:href="#a" id="j" x1="-262.15311" x2="-226.65335" y1="292.93674" y2="292.84225" gradientTransform="translate(-.532 -23.386)" gradientUnits="userSpaceOnUse"/><linearGradient xlink:href="#a" id="k" x1="-262.15311" x2="-226.65335" y1="292.93674" y2="292.84225" gradientTransform="translate(-.532 -23.386)" gradientUnits="userSpaceOnUse"/><linearGradient xlink:href="#a" id="m" x1="-145.90593" x2="-145.85474" y1="71.894341" y2="67.183716" gradientTransform="translate(-55.1 -3.58)" gradientUnits="userSpaceOnUse"/><linearGradient xlink:href="#a" id="p" x1="-52.660431" x2="-40.374325" y1="151.01891" y2="125.3644" gradientUnits="userSpaceOnUse"/><linearGradient xlink:href="#a" id="q" x1="-62.196533" x2="-50.660431" y1="156.98592" y2="133.17342" gradientUnits="userSpaceOnUse"/><linearGradient xlink:href="#a" id="n" x1="-52.660431" x2="-40.374325" y1="151.01891" y2="125.3644" gradientUnits="userSpaceOnUse"/><linearGradient xlink:href="#a" id="o" x1="-62.196533" x2="-50.660431" y1="156.98592" y2="133.17342" gradientUnits="userSpaceOnUse"/></defs><path fill="none" d="M0 0h533.418v725.457H0z" style="fill:#001c08;fill-opacity:0;pointer-events:none"/><g style="stroke-width:.26458332;stroke-miterlimit:4;stroke-dasharray:none"><path d="M-234.174 269.363c1.258-1.708 1.74-3.484 1.509-5.322-.326.04-.64.119-.85.511.197-.915-.208-1.687-.604-2.461-.389.186-.695.434-.725.89-.266-1.025-.795-1.814-1.801-2.18-.777.818-.972 1.735-.734 2.724-.132-.314-.445-.533-.958-.646-.204.94-.027 1.746.34 2.484-.253-.3-.59-.365-.976-.288.29 2.722 2.032 3.592 3.725 4.527" style="fill:url(#b);fill-opacity:1;fill-rule:evenodd;stroke:#b3b3b3;stroke-width:.26458332;stroke-linecap:round;stroke-linejoin:round;stroke-miterlimit:4;stroke-dasharray:none;stroke-opacity:1" transform="matrix(16.27967 0 0 16.27967 4252.217 -3810.125)"/><g style="fill:#ccc;fill-opacity:1;stroke:#b3b3b3;stroke-width:.24226707;stroke-miterlimit:4;stroke-dasharray:none;stroke-opacity:1"><g style="fill:#ccc;fill-opacity:1;stroke:#b3b3b3;stroke-width:.72227061;stroke-miterlimit:4;stroke-dasharray:none;stroke-opacity:1"><path d="m496.071 632.898 3.305 23.605" style="fill:#ccc;fill-opacity:1;fill-rule:evenodd;stroke:#b3b3b3;stroke-width:.72227061;stroke-linecap:round;stroke-linejoin:round;stroke-miterlimit:4;stroke-dasharray:none;stroke-opacity:1" transform="matrix(-5.54032 1.95994 1.88804 5.7513 1953.714 -4176.712)"/><path d="M503.641 640.777s-1.551 3.452-2.948 4.71c-.77.696-2.81 1.401-2.81 1.401M490.26 642.44s2.023 2.745 3.509 3.553c1.212.659 4.113.895 4.113.895" style="fill:none;fill-opacity:1;fill-rule:evenodd;stroke:#b3b3b3;stroke-width:.72227061;stroke-linecap:round;stroke-linejoin:round;stroke-miterlimit:4;stroke-dasharray:none;stroke-opacity:1" transform="matrix(-5.54032 1.95994 1.88804 5.7513 1953.714 -4176.712)"/></g><path d="M315.574 213.258s.672.018.957.172c.273.147.64.673.64.673s-.107.47-.25.655c-.22.29-.884.642-.884.642M319.25 216.523s1.024-1.085 1.375-1.734c.235-.435.469-1.406.469-1.406s-.318-.716-.578-1c-.539-.588-1.957-1.372-1.957-1.372" style="fill:none;fill-opacity:1;stroke:#b3b3b3;stroke-width:.24226707;stroke-linecap:butt;stroke-linejoin:miter;stroke-miterlimit:4;stroke-dasharray:none;stroke-opacity:1" transform="matrix(0 17.58093 -17.97982 0 4259.52 -5089.324)"/></g><path d="M-238.673 274.3c-.849-1.935-.925-3.77-.29-5.515.309.109.597.252.715.68.012-.936.579-1.603 1.137-2.275.339.264.582.572.51 1.023.487-.944 1.18-1.602 2.243-1.744.576.963.563 1.899.11 2.814.199-.279.553-.426 1.08-.427-.011.96-.362 1.71-.885 2.353.315-.24.658-.231 1.017-.074-.887 2.595-2.782 3.074-4.642 3.627" style="fill:url(#c);fill-opacity:1;fill-rule:evenodd;stroke:#b3b3b3;stroke-width:.26458332;stroke-linecap:round;stroke-linejoin:round;stroke-miterlimit:4;stroke-dasharray:none;stroke-opacity:1" transform="matrix(16.27967 0 0 16.27967 4252.217 -3810.125)"/><g style="fill:#ccc;fill-opacity:1;stroke:#b3b3b3;stroke-width:.24226707;stroke-miterlimit:4;stroke-dasharray:none;stroke-opacity:1"><g style="fill:#ccc;fill-opacity:1;stroke:#b3b3b3;stroke-width:.72227061;stroke-miterlimit:4;stroke-dasharray:none;stroke-opacity:1"><path d="m496.071 632.898 3.305 23.605" style="fill:#ccc;fill-opacity:1;fill-rule:evenodd;stroke:#b3b3b3;stroke-width:.72227061;stroke-linecap:round;stroke-linejoin:round;stroke-miterlimit:4;stroke-dasharray:none;stroke-opacity:1" transform="matrix(4.97235 3.09035 -3.12108 5.21267 -53.833 -4304.326)"/><path d="M503.581 640.915s-1.527 3.35-2.888 4.573c-.772.693-2.81 1.4-2.81 1.4M490.569 642.875s1.865 2.407 3.2 3.118c1.22.648 4.113.895 4.113.895" style="fill:none;fill-opacity:1;fill-rule:evenodd;stroke:#b3b3b3;stroke-width:.72227061;stroke-linecap:round;stroke-linejoin:round;stroke-miterlimit:4;stroke-dasharray:none;stroke-opacity:1" transform="matrix(4.97235 3.09035 -3.12108 5.21267 -53.833 -4304.326)"/></g><path d="M315.574 213.258s.67.022.957.172c.268.14.64.64.64.64s-.102.493-.25.688c-.219.29-.884.642-.884.642M319.25 216.523s1.024-1.085 1.375-1.734c.235-.435.469-1.406.469-1.406s-.32-.715-.578-1c-.547-.603-1.985-1.422-1.985-1.422" style="fill:none;fill-opacity:1;stroke:#b3b3b3;stroke-width:.24226707;stroke-linecap:butt;stroke-linejoin:miter;stroke-miterlimit:4;stroke-dasharray:none;stroke-opacity:1" transform="matrix(-3.90716 17.1608 17.55016 3.82048 -2101.719 -5685.083)"/></g><path d="M-241.798 273.059c1.747-1.23 3.563-1.702 5.442-1.476-.041.319-.121.625-.523.83.936-.191 1.726.205 2.518.592-.19.38-.445.68-.91.71 1.047.259 1.855.776 2.228 1.76-.836.76-1.774.95-2.786.717.322.13.546.435.662.938-.962.198-1.786.026-2.541-.334.308.249.373.578.295.955-2.784-.283-3.674-1.987-4.63-3.642" style="fill:url(#d);fill-opacity:1;fill-rule:evenodd;stroke:#b3b3b3;stroke-width:.26458332;stroke-linecap:round;stroke-linejoin:round;stroke-miterlimit:4;stroke-dasharray:none;stroke-opacity:1" transform="matrix(16.27967 0 0 16.27967 4252.217 -3810.125)"/><path d="M-255.697 269.344c-1.258-1.708-1.74-3.484-1.508-5.322.325.041.639.12.85.512-.197-.915.207-1.687.604-2.462.388.186.694.435.725.89.265-1.024.794-1.814 1.8-2.179.778.818.972 1.734.734 2.724.132-.315.445-.533.959-.647.203.94.027 1.747-.341 2.485.254-.301.59-.365.976-.288-.289 2.722-2.032 3.592-3.724 4.526" style="fill:url(#e);fill-opacity:1;fill-rule:evenodd;stroke:#b3b3b3;stroke-width:.26458332;stroke-linecap:round;stroke-linejoin:round;stroke-miterlimit:4;stroke-dasharray:none;stroke-opacity:1" transform="matrix(16.27967 0 0 16.27967 4252.217 -3810.125)"/><g style="fill:#ccc;fill-opacity:1;stroke:#b3b3b3;stroke-width:.24226707;stroke-miterlimit:4;stroke-dasharray:none;stroke-opacity:1"><g style="fill:#ccc;fill-opacity:1;stroke:#b3b3b3;stroke-width:.72227061;stroke-miterlimit:4;stroke-dasharray:none;stroke-opacity:1"><path d="m496.071 632.898 3.305 23.605" style="fill:#ccc;fill-opacity:1;fill-rule:evenodd;stroke:#b3b3b3;stroke-width:.72227061;stroke-linecap:round;stroke-linejoin:round;stroke-miterlimit:4;stroke-dasharray:none;stroke-opacity:1" transform="matrix(5.54032 1.95994 -1.88804 5.7513 -1423.123 -4177.012)"/><path d="M503.641 640.777s-1.551 3.452-2.948 4.71c-.77.696-2.81 1.401-2.81 1.401M490.26 642.44s2.023 2.745 3.509 3.553c1.212.659 4.113.895 4.113.895" style="fill:none;fill-opacity:1;fill-rule:evenodd;stroke:#b3b3b3;stroke-width:.72227061;stroke-linecap:round;stroke-linejoin:round;stroke-miterlimit:4;stroke-dasharray:none;stroke-opacity:1" transform="matrix(5.54032 1.95994 -1.88804 5.7513 -1423.123 -4177.012)"/></g><path d="M315.574 213.258s.672.018.957.172c.273.147.64.673.64.673s-.107.47-.25.655c-.22.29-.884.642-.884.642M319.25 216.523s1.024-1.085 1.375-1.734c.235-.435.469-1.406.469-1.406s-.318-.716-.578-1c-.539-.588-1.957-1.372-1.957-1.372" style="fill:none;fill-opacity:1;stroke:#b3b3b3;stroke-width:.24226707;stroke-linecap:butt;stroke-linejoin:miter;stroke-miterlimit:4;stroke-dasharray:none;stroke-opacity:1" transform="matrix(0 17.58093 17.97982 0 -3728.928 -5089.624)"/></g><path d="M-251.197 274.281c.848-1.934.924-3.77.29-5.515-.31.11-.598.252-.716.68-.011-.935-.578-1.603-1.137-2.274-.338.264-.581.572-.51 1.023-.487-.944-1.179-1.602-2.242-1.745-.577.964-.563 1.9-.11 2.815-.2-.28-.554-.426-1.08-.428.01.961.362 1.71.885 2.353-.315-.24-.658-.23-1.017-.074.887 2.596 2.782 3.075 4.641 3.627" style="fill:url(#f);fill-opacity:1;fill-rule:evenodd;stroke:#b3b3b3;stroke-width:.26458332;stroke-linecap:round;stroke-linejoin:round;stroke-miterlimit:4;stroke-dasharray:none;stroke-opacity:1" transform="matrix(16.27967 0 0 16.27967 4252.217 -3810.125)"/><g style="fill:#ccc;fill-opacity:1;stroke:#b3b3b3;stroke-width:.24226707;stroke-miterlimit:4;stroke-dasharray:none;stroke-opacity:1"><g style="fill:#ccc;fill-opacity:1;stroke:#b3b3b3;stroke-width:.72227061;stroke-miterlimit:4;stroke-dasharray:none;stroke-opacity:1"><path d="m496.071 632.898 3.305 23.605" style="fill:#ccc;fill-opacity:1;fill-rule:evenodd;stroke:#b3b3b3;stroke-width:.72227061;stroke-linecap:round;stroke-linejoin:round;stroke-miterlimit:4;stroke-dasharray:none;stroke-opacity:1" transform="matrix(-4.97235 3.09035 3.12108 5.21267 584.424 -4304.626)"/><path d="M503.581 640.915s-1.527 3.35-2.888 4.573c-.772.693-2.81 1.4-2.81 1.4M490.569 642.875s1.865 2.407 3.2 3.118c1.22.648 4.113.895 4.113.895" style="fill:none;fill-opacity:1;fill-rule:evenodd;stroke:#b3b3b3;stroke-width:.72227061;stroke-linecap:round;stroke-linejoin:round;stroke-miterlimit:4;stroke-dasharray:none;stroke-opacity:1" transform="matrix(-4.97235 3.09035 3.12108 5.21267 584.424 -4304.626)"/></g><path d="M315.574 213.258s.67.022.957.172c.268.14.64.64.64.64s-.102.493-.25.688c-.219.29-.884.642-.884.642M319.25 216.523s1.024-1.085 1.375-1.734c.235-.435.469-1.406.469-1.406s-.32-.715-.578-1c-.547-.603-1.985-1.422-1.985-1.422" style="fill:none;fill-opacity:1;stroke:#b3b3b3;stroke-width:.24226707;stroke-linecap:butt;stroke-linejoin:miter;stroke-miterlimit:4;stroke-dasharray:none;stroke-opacity:1" transform="matrix(3.90716 17.1608 -17.55016 3.82048 2632.31 -5685.383)"/></g><path d="M-248.072 273.04c-1.747-1.23-3.563-1.702-5.443-1.475.042.318.122.625.523.83-.936-.192-1.725.204-2.517.592.19.38.444.679.91.709-1.048.26-1.855.777-2.229 1.76.837.76 1.774.95 2.786.718-.321.129-.545.435-.661.937.961.199 1.786.027 2.54-.333-.307.248-.372.578-.294.955 2.784-.283 3.674-1.987 4.63-3.642" style="fill:url(#g);fill-opacity:1;fill-rule:evenodd;stroke:#b3b3b3;stroke-width:.26458332;stroke-linecap:round;stroke-linejoin:round;stroke-miterlimit:4;stroke-dasharray:none;stroke-opacity:1" transform="matrix(16.27967 0 0 16.27967 4252.217 -3810.125)"/><path d="M-243.502 272.463c.453-1.137 3.11-2.967.978-3.577.177-.512-.183-1.739-1.34-1.143-.432-1.132-1.788-1.088-2.127 0-1.158-.596-1.518.631-1.34 1.143-2.134.61.525 2.44.977 3.577 1.146 1.094 2.092 1.068 2.852 0z" style="fill:url(#h);fill-opacity:1;fill-rule:evenodd;stroke:#b3b3b3;stroke-width:.26458332;stroke-linecap:butt;stroke-linejoin:miter;stroke-miterlimit:4;stroke-dasharray:none;stroke-opacity:1" transform="matrix(16.27967 0 0 16.27967 4252.217 -3810.125)"/><g style="fill:#ccc;fill-opacity:1;stroke:#b3b3b3;stroke-width:.24226707;stroke-miterlimit:4;stroke-dasharray:none;stroke-opacity:1"><g style="fill:#ccc;fill-opacity:1;stroke:#b3b3b3;stroke-width:.72227061;stroke-miterlimit:4;stroke-dasharray:none;stroke-opacity:1"><path d="m496.071 632.898 3.305 23.605" style="fill:#ccc;fill-opacity:1;fill-rule:evenodd;stroke:#b3b3b3;stroke-width:.72227061;stroke-linecap:round;stroke-linejoin:round;stroke-miterlimit:4;stroke-dasharray:none;stroke-opacity:1" transform="matrix(2.0044 5.4174 5.88179 -1.84615 -4645.206 -844.875)"/><path d="M503.581 640.915s-1.527 3.35-2.888 4.573c-.772.693-2.81 1.4-2.81 1.4M490.569 642.875s1.865 2.407 3.2 3.118c1.22.648 4.113.895 4.113.895" style="fill:none;fill-opacity:1;fill-rule:evenodd;stroke:#b3b3b3;stroke-width:.72227061;stroke-linecap:round;stroke-linejoin:round;stroke-miterlimit:4;stroke-dasharray:none;stroke-opacity:1" transform="matrix(2.0044 5.4174 5.88179 -1.84615 -4645.206 -844.875)"/></g><path d="M315.574 213.258s.67.022.957.172c.268.14.64.64.64.64s-.102.493-.25.688c-.219.29-.884.642-.884.642M319.25 216.523s1.024-1.085 1.375-1.734c.235-.435.469-1.406.469-1.406s-.32-.715-.578-1c-.547-.603-1.985-1.422-1.985-1.422" style="fill:none;fill-opacity:1;stroke:#b3b3b3;stroke-width:.24226707;stroke-linecap:butt;stroke-linejoin:miter;stroke-miterlimit:4;stroke-dasharray:none;stroke-opacity:1" transform="matrix(17.97982 0 0 17.58093 -5578.524 -3099.525)"/></g><path d="M-248.805 272.86c-.622.064-.881 1.745.108 1.71.022.847.849 1.433 1.656.888.748.631 1.322.218 1.54-.43.95-.498.454-1.22.19-1.554l-1.237-1.816z" style="fill:url(#i);fill-opacity:1;fill-rule:evenodd;stroke:#b3b3b3;stroke-width:.26458332;stroke-linecap:butt;stroke-linejoin:miter;stroke-miterlimit:4;stroke-dasharray:none;stroke-opacity:1" transform="matrix(16.27967 0 0 16.27967 4252.217 -3810.125)"/><path d="M-248.089 269.642c-.26-.292-.997-.366-.942.48-.7.04-1.014.604-.543 1.28-.501.657-.145 1.138.396 1.307.436.8 1.018.357 1.288.123l1.467-.038c.097-1.335-.842-2.218-1.666-3.152z" style="fill:url(#j);fill-opacity:1;fill-rule:evenodd;stroke:#b3b3b3;stroke-width:.26458332;stroke-linecap:butt;stroke-linejoin:miter;stroke-miterlimit:4;stroke-dasharray:none;stroke-opacity:1" transform="matrix(16.27967 0 0 16.27967 4252.217 -3810.125)"/><g style="fill:#ccc;fill-opacity:1;stroke:#b3b3b3;stroke-width:.24226707;stroke-miterlimit:4;stroke-dasharray:none;stroke-opacity:1"><g style="fill:#ccc;fill-opacity:1;stroke:#b3b3b3;stroke-width:.72227061;stroke-miterlimit:4;stroke-dasharray:none;stroke-opacity:1"><path d="m496.071 632.898 3.305 23.605" style="fill:#ccc;fill-opacity:1;fill-rule:evenodd;stroke:#b3b3b3;stroke-width:.72227061;stroke-linecap:round;stroke-linejoin:round;stroke-miterlimit:4;stroke-dasharray:none;stroke-opacity:1" transform="matrix(-2.0044 5.4174 -5.88179 -1.84615 5175.797 -844.575)"/><path d="M503.581 640.915s-1.527 3.35-2.888 4.573c-.772.693-2.81 1.4-2.81 1.4M490.569 642.875s1.865 2.407 3.2 3.118c1.22.648 4.113.895 4.113.895" style="fill:none;fill-opacity:1;fill-rule:evenodd;stroke:#b3b3b3;stroke-width:.72227061;stroke-linecap:round;stroke-linejoin:round;stroke-miterlimit:4;stroke-dasharray:none;stroke-opacity:1" transform="matrix(-2.0044 5.4174 -5.88179 -1.84615 5175.797 -844.575)"/></g><path d="M315.574 213.258s.67.022.957.172c.268.14.64.64.64.64s-.102.493-.25.688c-.219.29-.884.642-.884.642M319.25 216.523s1.024-1.085 1.375-1.734c.235-.435.469-1.406.469-1.406s-.32-.715-.578-1c-.547-.603-1.985-1.422-1.985-1.422" style="fill:none;fill-opacity:1;stroke:#b3b3b3;stroke-width:.24226707;stroke-linecap:butt;stroke-linejoin:miter;stroke-miterlimit:4;stroke-dasharray:none;stroke-opacity:1" transform="matrix(-17.97982 0 0 17.58093 6109.115 -3099.225)"/></g><path d="M-241.014 272.86c.622.064.88 1.745-.108 1.71-.022.847-.85 1.433-1.657.888-.748.631-1.322.218-1.539-.43-.951-.498-.455-1.22-.191-1.554l1.237-1.816z" style="fill:url(#k);fill-opacity:1;fill-rule:evenodd;stroke:#b3b3b3;stroke-width:.26458332;stroke-linecap:butt;stroke-linejoin:miter;stroke-miterlimit:4;stroke-dasharray:none;stroke-opacity:1" transform="matrix(16.27967 0 0 16.27967 4252.217 -3810.125)"/><path d="M-241.767 269.642c.26-.292.997-.366.942.48.7.04 1.014.604.543 1.28.502.657.146 1.138-.396 1.307-.435.8-1.018.357-1.288.123l-1.467-.038c-.968-1.452 1-2.13 1.666-3.152z" style="fill:url(#l);fill-opacity:1;fill-rule:evenodd;stroke:#b3b3b3;stroke-width:.26458332;stroke-linecap:butt;stroke-linejoin:miter;stroke-miterlimit:4;stroke-dasharray:none;stroke-opacity:1" transform="matrix(16.27967 0 0 16.27967 4252.217 -3810.125)"/><g style="fill:#ccc;fill-opacity:1;stroke:#b3b3b3;stroke-width:.21682777;stroke-miterlimit:4;stroke-dasharray:none;stroke-opacity:1"><g style="fill:#ccc;fill-opacity:1;stroke:#b3b3b3;stroke-width:.64642847;stroke-miterlimit:4;stroke-dasharray:none;stroke-opacity:1"><path d="M371.843 548.198c.123-3.166.789-6.391 2.828-9.318M372.853 548.104c.123-3.167 1.42-5.224 3.396-7.014M370.361 548.198c-.123-3.166-.788-6.391-2.828-9.318M369.351 548.104c-.123-3.167-1.42-5.224-3.396-7.014" style="fill:none;fill-opacity:1;fill-rule:evenodd;stroke:#b3b3b3;stroke-width:.64642847;stroke-linecap:round;stroke-linejoin:round;stroke-miterlimit:4;stroke-dasharray:none;stroke-opacity:1" transform="matrix(6.60413 0 0 6.72294 -2185.392 -3049.699)"/></g><g style="fill:#ccc;fill-opacity:1;stroke:#b3b3b3;stroke-width:.64642841;stroke-miterlimit:4;stroke-dasharray:none;stroke-opacity:1"><path d="m376.26 545.423 2.014-3.009M376.292 546.37l3.608-2.744M376.19 546.782l4.145-.927" style="fill:none;fill-opacity:1;fill-rule:evenodd;stroke:#b3b3b3;stroke-width:.64642841;stroke-linecap:round;stroke-linejoin:round;stroke-miterlimit:4;stroke-dasharray:none;stroke-opacity:1" transform="matrix(1.30851 6.58966 6.4732 -1.33205 -3788.98 -1121.726)"/></g><g style="fill:#ccc;fill-opacity:1;stroke:#b3b3b3;stroke-width:.64642847;stroke-miterlimit:4;stroke-dasharray:none;stroke-opacity:1"><path d="m376.26 545.423 2.014-3.009M376.292 546.37l3.608-2.744M376.19 546.782l4.145-.927" style="fill:none;fill-opacity:1;fill-rule:evenodd;stroke:#b3b3b3;stroke-width:.64642847;stroke-linecap:round;stroke-linejoin:round;stroke-miterlimit:4;stroke-dasharray:none;stroke-opacity:1" transform="matrix(-1.30851 6.58966 -6.4732 -1.33205 4319.572 -1121.426)"/></g><g style="fill:#ccc;fill-opacity:1;stroke:#b3b3b3;stroke-width:.64642847;stroke-miterlimit:4;stroke-dasharray:none;stroke-opacity:1"><path d="m376.483 545.78 3.099-2.47M376.292 546.37l3.474-1.654M376.19 546.782l3.818-.474" style="fill:none;fill-opacity:1;fill-rule:evenodd;stroke:#b3b3b3;stroke-width:.64642847;stroke-linecap:round;stroke-linejoin:round;stroke-miterlimit:4;stroke-dasharray:none;stroke-opacity:1" transform="matrix(6.60413 0 0 6.72294 -2190.954 -3049.699)"/></g><g style="fill:#ccc;fill-opacity:1;stroke:#b3b3b3;stroke-width:.64642847;stroke-miterlimit:4;stroke-dasharray:none;stroke-opacity:1"><path d="m366.326 546.138-3.544-2.829M366.072 546.37l-3.474-1.654M366.174 546.782l-3.818-.474" style="fill:none;fill-opacity:1;fill-rule:evenodd;stroke:#b3b3b3;stroke-width:.64642847;stroke-linecap:round;stroke-linejoin:round;stroke-miterlimit:4;stroke-dasharray:none;stroke-opacity:1" transform="matrix(6.60413 0 0 6.72294 -2179.75 -3049.699)"/></g><path d="M-462.201 155.036c-.173 0-.34.1-.416.244a.392.392 0 0 0-.052.228.437.437 0 0 0 .167.335c.018.019.049.03.063.048v2.676h.49l.001-2.68a.462.462 0 0 0 .228-.332.442.442 0 0 0-.075-.315.484.484 0 0 0-.406-.204z" style="opacity:1;fill:#ccc;fill-opacity:1;stroke:#b3b3b3;stroke-width:.21682777;stroke-linecap:round;stroke-linejoin:miter;stroke-miterlimit:4;stroke-dasharray:none;stroke-opacity:1" transform="matrix(19.10883 0 0 20.65153 9097.685 -2632.901)"/><path d="M-463.806 157.653v0c0-.115-.038-.203.08-.328.247.392.765.884 1.517.885.752-.002 1.27-.493 1.516-.885.119.125.08.213.08.328v0c0 .61-.726 1.105-1.596 1.107-.87-.001-1.597-.496-1.597-1.107z" style="opacity:1;fill:#ccc;fill-opacity:1;stroke:#b3b3b3;stroke-width:.21682777;stroke-linecap:round;stroke-linejoin:round;stroke-miterlimit:4;stroke-dasharray:none;stroke-opacity:1" transform="matrix(19.10883 0 0 20.65153 9097.685 -2632.901)"/></g></g><path d="M-210.496 65.28h17.727v1.323h-17.727V65.28Z" style="opacity:1;fill:url(#m);fill-opacity:1;stroke:#b3b3b3;stroke-width:.26458332;stroke-linecap:round;stroke-linejoin:miter;stroke-miterlimit:4;stroke-dasharray:none;stroke-opacity:1" transform="matrix(16.27967 0 0 16.27967 3548.343 -831.259)"/><g style="stroke-width:.40225852;stroke-miterlimit:4;stroke-dasharray:none"><path d="m-52.66 131.356-20 9.663 20 9.663 19.958-9.663z" style="fill:#ccc;fill-opacity:1;stroke:none;stroke-width:.40225852;stroke-linecap:butt;stroke-linejoin:miter;stroke-miterlimit:4;stroke-dasharray:none;stroke-opacity:1" transform="matrix(0 -11.43813 11.5899 0 -1224.265 -360.326)"/><path d="M-52.66 141.019h19.958l-19.958-9.663z" style="fill:url(#n);fill-opacity:1;stroke:none;stroke-width:.40225852;stroke-linecap:butt;stroke-linejoin:miter;stroke-miterlimit:4;stroke-dasharray:none;stroke-opacity:1" transform="matrix(0 -11.43813 11.5899 0 -1224.265 -360.326)"/><path d="M-52.66 150.682v-9.663H-72.62z" style="fill:url(#o);fill-opacity:1;stroke:none;stroke-width:.40225852;stroke-linecap:butt;stroke-linejoin:miter;stroke-miterlimit:4;stroke-dasharray:none;stroke-opacity:1" transform="matrix(0 -11.43813 11.5899 0 -1224.265 -360.326)"/><path d="m-52.66 131.356-19.959 9.663 19.959 9.663 19.958-9.663z" style="fill:none;fill-opacity:1;stroke:#b3b3b3;stroke-width:.40225852;stroke-linecap:butt;stroke-linejoin:miter;stroke-miterlimit:4;stroke-dasharray:none;stroke-opacity:1" transform="matrix(0 -11.43813 11.5899 0 -1224.265 -360.326)"/></g><g style="stroke-width:.40225852;stroke-miterlimit:4;stroke-dasharray:none"><path d="m-52.66 131.356-20 9.663 20 9.663 19.958-9.663z" style="fill:#ccc;fill-opacity:1;stroke:none;stroke-width:.40225852;stroke-linecap:butt;stroke-linejoin:miter;stroke-miterlimit:4;stroke-dasharray:none;stroke-opacity:1" transform="matrix(0 -11.43813 11.5899 0 -1512.856 -360.326)"/><path d="M-52.66 141.019h19.958l-19.958-9.663z" style="fill:url(#p);fill-opacity:1;stroke:none;stroke-width:.40225852;stroke-linecap:butt;stroke-linejoin:miter;stroke-miterlimit:4;stroke-dasharray:none;stroke-opacity:1" transform="matrix(0 -11.43813 11.5899 0 -1512.856 -360.326)"/><path d="M-52.66 150.682v-9.663H-72.62z" style="fill:url(#q);fill-opacity:1;stroke:none;stroke-width:.40225852;stroke-linecap:butt;stroke-linejoin:miter;stroke-miterlimit:4;stroke-dasharray:none;stroke-opacity:1" transform="matrix(0 -11.43813 11.5899 0 -1512.856 -360.326)"/><path d="m-52.66 131.356-19.959 9.663 19.959 9.663 19.958-9.663z" style="fill:none;fill-opacity:1;stroke:#b3b3b3;stroke-width:.40225852;stroke-linecap:butt;stroke-linejoin:miter;stroke-miterlimit:4;stroke-dasharray:none;stroke-opacity:1" transform="matrix(0 -11.43813 11.5899 0 -1512.856 -360.326)"/></g></svg>