<svg xmlns="http://www.w3.org/2000/svg" xmlns:xlink="http://www.w3.org/1999/xlink" width="553.0028686523438px" height="870.7142944335938px" x="0px" y="0px" style="enable-background:new 0 0 1400 980" viewBox="0 0 553.0028686523438 870.7142944335938"><defs><linearGradient xlink:href="#a" id="y" x1="-262.15311" x2="-226.65335" y1="292.93674" y2="292.84225" gradientTransform="translate(-.532 -23.386)" gradientUnits="userSpaceOnUse"/><linearGradient id="a"><stop offset="0" style="stop-color:#777;stop-opacity:1"/><stop offset="0.5" style="stop-color:#fff;stop-opacity:1"/><stop offset="1" style="stop-color:#777;stop-opacity:1"/></linearGradient><linearGradient xlink:href="#a" id="o" x1="-262.15311" x2="-226.65335" y1="292.93674" y2="292.84225" gradientTransform="translate(-.532 -23.386)" gradientUnits="userSpaceOnUse"/><linearGradient xlink:href="#a" id="p" x1="-262.15311" x2="-226.65335" y1="292.93674" y2="292.84225" gradientTransform="translate(-.532 -23.386)" gradientUnits="userSpaceOnUse"/><linearGradient xlink:href="#a" id="q" x1="-262.15311" x2="-226.65335" y1="292.93674" y2="292.84225" gradientTransform="translate(-.532 -23.386)" gradientUnits="userSpaceOnUse"/><linearGradient xlink:href="#a" id="r" x1="-262.15311" x2="-226.65335" y1="292.93674" y2="292.84225" gradientTransform="translate(-.532 -23.386)" gradientUnits="userSpaceOnUse"/><linearGradient xlink:href="#a" id="s" x1="-262.15311" x2="-226.65335" y1="292.93674" y2="292.84225" gradientTransform="translate(-.532 -23.386)" gradientUnits="userSpaceOnUse"/><linearGradient xlink:href="#a" id="t" x1="-262.15311" x2="-226.65335" y1="292.93674" y2="292.84225" gradientTransform="translate(-.532 -23.386)" gradientUnits="userSpaceOnUse"/><linearGradient xlink:href="#a" id="u" x1="-262.15311" x2="-226.65335" y1="292.93674" y2="292.84225" gradientTransform="translate(-.532 -23.386)" gradientUnits="userSpaceOnUse"/><linearGradient xlink:href="#a" id="v" x1="-262.15311" x2="-226.65335" y1="292.93674" y2="292.84225" gradientTransform="translate(-.532 -23.386)" gradientUnits="userSpaceOnUse"/><linearGradient xlink:href="#a" id="w" x1="-262.15311" x2="-226.65335" y1="292.93674" y2="292.84225" gradientTransform="translate(-.532 -23.386)" gradientUnits="userSpaceOnUse"/><linearGradient xlink:href="#a" id="x" x1="-262.15311" x2="-226.65335" y1="292.93674" y2="292.84225" gradientTransform="translate(-.532 -23.386)" gradientUnits="userSpaceOnUse"/><linearGradient xlink:href="#a" id="b" x1="-83.00753" x2="-81.501953" y1="139.16573" y2="139.16573" gradientTransform="translate(19.722 -29.226)" gradientUnits="userSpaceOnUse"/><linearGradient xlink:href="#a" id="c" x1="-83.00753" x2="-81.501953" y1="139.16573" y2="139.16573" gradientTransform="translate(200.766 -138.469)" gradientUnits="userSpaceOnUse"/><linearGradient xlink:href="#a" id="l" x1="479.13275" x2="486.10785" y1="170.86559" y2="170.86559" gradientUnits="userSpaceOnUse"/><linearGradient xlink:href="#a" id="m" x1="-33.347126" x2="-29.027641" y1="142.40886" y2="142.40886" gradientUnits="userSpaceOnUse"/><linearGradient xlink:href="#a" id="n" x1="-36.664574" x2="-32.345085" y1="148.14954" y2="148.14954" gradientUnits="userSpaceOnUse"/><linearGradient xlink:href="#a" id="d" x1="479.13275" x2="486.10785" y1="170.86559" y2="170.86559" gradientUnits="userSpaceOnUse"/><linearGradient xlink:href="#a" id="e" x1="479.13275" x2="486.10785" y1="170.86559" y2="170.86559" gradientUnits="userSpaceOnUse"/><linearGradient xlink:href="#a" id="f" x1="479.13275" x2="486.10785" y1="170.86559" y2="170.86559" gradientUnits="userSpaceOnUse"/><linearGradient xlink:href="#a" id="g" x1="479.13275" x2="486.10785" y1="170.86559" y2="170.86559" gradientUnits="userSpaceOnUse"/><linearGradient xlink:href="#a" id="h" x1="479.13275" x2="486.10785" y1="170.86559" y2="170.86559" gradientUnits="userSpaceOnUse"/><linearGradient xlink:href="#a" id="i" x1="479.13275" x2="486.10785" y1="170.86559" y2="170.86559" gradientUnits="userSpaceOnUse"/><linearGradient xlink:href="#a" id="j" x1="479.13275" x2="486.10785" y1="170.86559" y2="170.86559" gradientUnits="userSpaceOnUse"/><linearGradient xlink:href="#a" id="k" x1="479.13275" x2="486.10785" y1="170.86559" y2="170.86559" gradientUnits="userSpaceOnUse"/></defs><path fill="none" d="M0 0h553.003v870.714H0z" style="fill:#023706;fill-opacity:0;pointer-events:none"/><path d="M-63.194 102.002h1.323v15.875h-1.323v-15.875Z" style="opacity:1;fill:url(#b);fill-opacity:1;stroke:#b3b3b3;stroke-width:.26458332;stroke-linecap:round;stroke-linejoin:miter;stroke-miterlimit:4;stroke-dasharray:none;stroke-opacity:1" transform="scale(-19.5924 19.5924) rotate(31.115 118.915 144.03)"/><path d="M117.85-7.24h1.323V8.633h-1.323V-7.24Z" style="opacity:1;fill:url(#c);fill-opacity:1;stroke:#b3b3b3;stroke-width:.26458332;stroke-linecap:round;stroke-linejoin:miter;stroke-miterlimit:4;stroke-dasharray:none;stroke-opacity:1" transform="scale(19.5924) rotate(31.115 27.377 -184.759)"/><g style="stroke-width:.37358648;stroke-miterlimit:4;stroke-dasharray:none"><g style="stroke:#b3b3b3;stroke-width:.44754329;stroke-miterlimit:4;stroke-dasharray:none;stroke-opacity:1"><path d="M482.652 160.142c4.056 7.026 4.535 14.2 0 21.583-4.536-7.383-4.056-14.557 0-21.583z" style="fill:url(#d);fill-opacity:1;fill-rule:evenodd;stroke:#b3b3b3;stroke-width:.44754329;stroke-linecap:butt;stroke-linejoin:miter;stroke-miterlimit:4;stroke-dasharray:none;stroke-opacity:1" transform="matrix(10.74918 0 0 12.48115 -4909.7 -1982.237)"/><path stroke="none" d="M482.683 164.054c-.594 7.39-.23 12.264-.031 17.67.198-5.406.626-10.28.031-17.67z" style="fill:#ccc;fill-opacity:1;fill-rule:evenodd;stroke:none;stroke-width:.44754329;stroke-linecap:butt;stroke-linejoin:miter;stroke-miterlimit:4;stroke-dasharray:none;stroke-opacity:1" transform="matrix(10.74918 0 0 12.48115 -4909.7 -1982.237)"/></g><g style="stroke:#b3b3b3;stroke-width:.44754329;stroke-miterlimit:4;stroke-dasharray:none;stroke-opacity:1"><path d="M482.652 160.142c4.056 7.026 4.535 14.2 0 21.583-4.536-7.383-4.056-14.557 0-21.583z" style="fill:url(#e);fill-opacity:1;fill-rule:evenodd;stroke:#b3b3b3;stroke-width:.44754329;stroke-linecap:butt;stroke-linejoin:miter;stroke-miterlimit:4;stroke-dasharray:none;stroke-opacity:1" transform="matrix(7.84384 7.5352 -8.324 9.10768 -1997.115 -5003.996)"/><path stroke="none" d="M482.683 164.054c-.594 7.39-.198 12.219 0 17.625.199-5.406.595-10.235 0-17.625z" style="fill:#ccc;fill-opacity:1;fill-rule:evenodd;stroke:none;stroke-width:.44754329;stroke-linecap:butt;stroke-linejoin:miter;stroke-miterlimit:4;stroke-dasharray:none;stroke-opacity:1" transform="matrix(7.84384 7.5352 -8.324 9.10768 -1997.115 -5003.996)"/></g><g style="stroke:#b3b3b3;stroke-width:.44754329;stroke-miterlimit:4;stroke-dasharray:none;stroke-opacity:1"><path d="M482.652 160.142c4.056 7.026 4.535 14.2 0 21.583-4.536-7.383-4.056-14.557 0-21.583z" style="fill:url(#f);fill-opacity:1;fill-rule:evenodd;stroke:#b3b3b3;stroke-width:.44754329;stroke-linecap:butt;stroke-linejoin:miter;stroke-miterlimit:4;stroke-dasharray:none;stroke-opacity:1" transform="matrix(1.5817 10.90042 -12.04148 1.83656 1700.875 -5306.881)"/><path stroke="none" d="M482.683 164.054c-.594 7.39-.198 12.219 0 17.625.199-5.406.595-10.235 0-17.625z" style="fill:#ccc;fill-opacity:1;fill-rule:evenodd;stroke:none;stroke-width:.44754329;stroke-linecap:butt;stroke-linejoin:miter;stroke-miterlimit:4;stroke-dasharray:none;stroke-opacity:1" transform="matrix(1.5817 10.90042 -12.04148 1.83656 1700.875 -5306.881)"/></g><g style="stroke:#b3b3b3;stroke-width:.44754329;stroke-miterlimit:4;stroke-dasharray:none;stroke-opacity:1"><path d="M482.652 160.142c4.056 7.026 4.535 14.2 0 21.583-4.536-7.383-4.056-14.557 0-21.583z" style="fill:url(#g);fill-opacity:1;fill-rule:evenodd;stroke:#b3b3b3;stroke-width:.44754329;stroke-linecap:butt;stroke-linejoin:miter;stroke-miterlimit:4;stroke-dasharray:none;stroke-opacity:1" transform="matrix(-5.71896 9.3312 -10.30798 -6.64043 4912.016 -3010.435)"/><path stroke="none" d="M482.683 164.054c-.594 7.39-.198 12.219 0 17.625.199-5.406.595-10.235 0-17.625z" style="fill:#ccc;fill-opacity:1;fill-rule:evenodd;stroke:none;stroke-width:.44754329;stroke-linecap:butt;stroke-linejoin:miter;stroke-miterlimit:4;stroke-dasharray:none;stroke-opacity:1" transform="matrix(-5.71896 9.3312 -10.30798 -6.64043 4912.016 -3010.435)"/></g><g style="stroke:#b3b3b3;stroke-width:.44754329;stroke-miterlimit:4;stroke-dasharray:none;stroke-opacity:1"><path d="M482.652 160.142c4.056 7.026 4.535 14.2 0 21.583-4.536-7.383-4.056-14.557 0-21.583z" style="fill:url(#h);fill-opacity:1;fill-rule:evenodd;stroke:#b3b3b3;stroke-width:.44754329;stroke-linecap:butt;stroke-linejoin:miter;stroke-miterlimit:4;stroke-dasharray:none;stroke-opacity:1" transform="matrix(-10.06518 3.86841 -4.27336 -11.68693 5911.642 543.252)"/><path stroke="none" d="M482.683 164.054c-.594 7.39-.198 12.219 0 17.625.199-5.406.595-10.235 0-17.625z" style="fill:#ccc;fill-opacity:1;fill-rule:evenodd;stroke:none;stroke-width:.44754329;stroke-linecap:butt;stroke-linejoin:miter;stroke-miterlimit:4;stroke-dasharray:none;stroke-opacity:1" transform="matrix(-10.06518 3.86841 -4.27336 -11.68693 5911.642 543.252)"/></g><g style="stroke:#b3b3b3;stroke-width:.44754329;stroke-miterlimit:4;stroke-dasharray:none;stroke-opacity:1"><path d="M482.652 160.142c4.056 7.026 4.535 14.2 0 21.583-4.536-7.383-4.056-14.557 0-21.583z" style="fill:url(#i);fill-opacity:1;fill-rule:evenodd;stroke:#b3b3b3;stroke-width:.44754329;stroke-linecap:butt;stroke-linejoin:miter;stroke-miterlimit:4;stroke-dasharray:none;stroke-opacity:1" transform="matrix(-7.84384 7.5352 8.324 9.10768 2551.363 -5004.85)"/><path stroke="none" d="M482.683 164.054c-.594 7.39-.198 12.219 0 17.625.199-5.406.595-10.235 0-17.625z" style="fill:#ccc;fill-opacity:1;fill-rule:evenodd;stroke:none;stroke-width:.44754329;stroke-linecap:butt;stroke-linejoin:miter;stroke-miterlimit:4;stroke-dasharray:none;stroke-opacity:1" transform="matrix(-7.84384 7.5352 8.324 9.10768 2551.363 -5004.85)"/></g><g style="stroke:#b3b3b3;stroke-width:.44754329;stroke-miterlimit:4;stroke-dasharray:none;stroke-opacity:1"><path d="M482.652 160.142c4.056 7.026 4.535 14.2 0 21.583-4.536-7.383-4.056-14.557 0-21.583z" style="fill:url(#j);fill-opacity:1;fill-rule:evenodd;stroke:#b3b3b3;stroke-width:.44754329;stroke-linecap:butt;stroke-linejoin:miter;stroke-miterlimit:4;stroke-dasharray:none;stroke-opacity:1" transform="matrix(-1.5817 10.90042 12.04148 1.83656 -1147.254 -5307.915)"/><path stroke="none" d="M482.683 164.054c-.594 7.39-.198 12.219 0 17.625.199-5.406.595-10.235 0-17.625z" style="fill:#ccc;fill-opacity:1;fill-rule:evenodd;stroke:none;stroke-width:.44754329;stroke-linecap:butt;stroke-linejoin:miter;stroke-miterlimit:4;stroke-dasharray:none;stroke-opacity:1" transform="matrix(-1.5817 10.90042 12.04148 1.83656 -1147.254 -5307.915)"/></g><g style="stroke:#b3b3b3;stroke-width:.44754329;stroke-miterlimit:4;stroke-dasharray:none;stroke-opacity:1"><path d="M482.652 160.142c4.056 7.026 4.535 14.2 0 21.583-4.536-7.383-4.056-14.557 0-21.583z" style="fill:url(#k);fill-opacity:1;fill-rule:evenodd;stroke:#b3b3b3;stroke-width:.44754329;stroke-linecap:butt;stroke-linejoin:miter;stroke-miterlimit:4;stroke-dasharray:none;stroke-opacity:1" transform="matrix(5.71896 9.3312 10.30798 -6.64043 -4356.513 -3009.786)"/><path stroke="none" d="M482.683 164.054c-.594 7.39-.198 12.219 0 17.625.199-5.406.595-10.235 0-17.625z" style="fill:#ccc;fill-opacity:1;fill-rule:evenodd;stroke:none;stroke-width:.44754329;stroke-linecap:butt;stroke-linejoin:miter;stroke-miterlimit:4;stroke-dasharray:none;stroke-opacity:1" transform="matrix(5.71896 9.3312 10.30798 -6.64043 -4356.513 -3009.786)"/></g><g style="stroke:#b3b3b3;stroke-width:.44754329;stroke-miterlimit:4;stroke-dasharray:none;stroke-opacity:1"><path d="M482.652 160.142c4.056 7.026 4.535 14.2 0 21.583-4.536-7.383-4.056-14.557 0-21.583z" style="fill:url(#l);fill-opacity:1;fill-rule:evenodd;stroke:#b3b3b3;stroke-width:.44754329;stroke-linecap:butt;stroke-linejoin:miter;stroke-miterlimit:4;stroke-dasharray:none;stroke-opacity:1" transform="matrix(10.06518 3.86841 4.27336 -11.68693 -5356.139 542.603)"/><path stroke="none" d="M482.683 164.054c-.594 7.39-.198 12.219 0 17.625.199-5.406.595-10.235 0-17.625z" style="fill:#ccc;fill-opacity:1;fill-rule:evenodd;stroke:none;stroke-width:.44754329;stroke-linecap:butt;stroke-linejoin:miter;stroke-miterlimit:4;stroke-dasharray:none;stroke-opacity:1" transform="matrix(10.06518 3.86841 4.27336 -11.68693 -5356.139 542.603)"/></g><g style="stroke-width:.37358648;stroke-miterlimit:4;stroke-dasharray:none"><path d="m-32.834 139.259-3.024 6.04 3 6 3.024-6.04z" style="fill:#ccc;fill-opacity:1;stroke:none;stroke-width:.37358648;stroke-linecap:butt;stroke-linejoin:miter;stroke-miterlimit:4;stroke-dasharray:none;stroke-opacity:1" transform="matrix(13.83655 0 0 13.91522 733.302 -1734.444)"/><path d="m-32.834 139.259-.012 6.02 3.012-.02z" style="fill:url(#m);fill-opacity:1;stroke:none;stroke-width:.37358648;stroke-linecap:butt;stroke-linejoin:miter;stroke-miterlimit:4;stroke-dasharray:none;stroke-opacity:1" transform="matrix(13.83655 0 0 13.91522 733.302 -1734.444)"/><path d="m-32.858 151.3.012-6.02-3.012.02z" style="fill:url(#n);fill-opacity:1;stroke:none;stroke-width:.37358648;stroke-linecap:butt;stroke-linejoin:miter;stroke-miterlimit:4;stroke-dasharray:none;stroke-opacity:1" transform="matrix(13.83655 0 0 13.91522 733.302 -1734.444)"/><path d="m-32.834 139.259-3.024 6.04 3 6 3.024-6.04z" style="fill:none;fill-opacity:1;stroke:#b3b3b3;stroke-width:.37358648;stroke-linecap:butt;stroke-linejoin:miter;stroke-miterlimit:4;stroke-dasharray:none;stroke-opacity:1" transform="matrix(13.83655 0 0 13.91522 733.302 -1734.444)"/></g></g><g style="stroke-width:.26458332;stroke-miterlimit:4;stroke-dasharray:none"><path d="M-234.174 269.363c1.258-1.708 1.74-3.484 1.509-5.322-.326.04-.64.119-.85.511.197-.915-.208-1.687-.604-2.461-.389.186-.695.434-.725.89-.266-1.025-.795-1.814-1.801-2.18-.777.818-.972 1.735-.734 2.724-.132-.314-.445-.533-.958-.646-.204.94-.027 1.746.34 2.484-.253-.3-.59-.365-.976-.288.29 2.722 2.032 3.592 3.725 4.527" style="fill:url(#o);fill-opacity:1;fill-rule:evenodd;stroke:#b3b3b3;stroke-width:.26458332;stroke-linecap:round;stroke-linejoin:round;stroke-miterlimit:4;stroke-dasharray:none;stroke-opacity:1" transform="matrix(19.5924 0 0 19.5924 5076.393 -4589.267)"/><g style="fill:#ccc;fill-opacity:1;stroke:#b3b3b3;stroke-width:.24226707;stroke-miterlimit:4;stroke-dasharray:none;stroke-opacity:1"><g style="fill:#ccc;fill-opacity:1;stroke:#b3b3b3;stroke-width:.72227061;stroke-miterlimit:4;stroke-dasharray:none;stroke-opacity:1"><path d="m496.071 632.898 3.305 23.605" style="fill:#ccc;fill-opacity:1;fill-rule:evenodd;stroke:#b3b3b3;stroke-width:.72227061;stroke-linecap:round;stroke-linejoin:round;stroke-miterlimit:4;stroke-dasharray:none;stroke-opacity:1" transform="matrix(-6.66771 2.35876 2.27223 6.92162 2310.17 -5030.45)"/><path d="M503.641 640.777s-1.551 3.452-2.948 4.71c-.77.696-2.81 1.401-2.81 1.401M490.26 642.44s2.023 2.745 3.509 3.553c1.212.659 4.113.895 4.113.895" style="fill:none;fill-opacity:1;fill-rule:evenodd;stroke:#b3b3b3;stroke-width:.72227061;stroke-linecap:round;stroke-linejoin:round;stroke-miterlimit:4;stroke-dasharray:none;stroke-opacity:1" transform="matrix(-6.66771 2.35876 2.27223 6.92162 2310.17 -5030.45)"/></g><path d="M315.574 213.258s.672.018.957.172c.273.147.64.673.64.673s-.107.47-.25.655c-.22.29-.884.642-.884.642M319.25 216.523s1.024-1.085 1.375-1.734c.235-.435.469-1.406.469-1.406s-.318-.716-.578-1c-.539-.588-1.957-1.372-1.957-1.372" style="fill:none;fill-opacity:1;stroke:#b3b3b3;stroke-width:.24226707;stroke-linecap:butt;stroke-linejoin:miter;stroke-miterlimit:4;stroke-dasharray:none;stroke-opacity:1" transform="matrix(0 21.15845 -21.63851 0 5085.182 -6128.768)"/></g><path d="M-238.673 274.3c-.849-1.935-.925-3.77-.29-5.515.309.109.597.252.715.68.012-.936.579-1.603 1.137-2.275.339.264.582.572.51 1.023.487-.944 1.18-1.602 2.243-1.744.576.963.563 1.899.11 2.814.199-.279.553-.426 1.08-.427-.011.96-.362 1.71-.885 2.353.315-.24.658-.231 1.017-.074-.887 2.595-2.782 3.074-4.642 3.627" style="fill:url(#p);fill-opacity:1;fill-rule:evenodd;stroke:#b3b3b3;stroke-width:.26458332;stroke-linecap:round;stroke-linejoin:round;stroke-miterlimit:4;stroke-dasharray:none;stroke-opacity:1" transform="matrix(19.5924 0 0 19.5924 5076.393 -4589.267)"/><g style="fill:#ccc;fill-opacity:1;stroke:#b3b3b3;stroke-width:.24226707;stroke-miterlimit:4;stroke-dasharray:none;stroke-opacity:1"><g style="fill:#ccc;fill-opacity:1;stroke:#b3b3b3;stroke-width:.72227061;stroke-miterlimit:4;stroke-dasharray:none;stroke-opacity:1"><path d="m496.071 632.898 3.305 23.605" style="fill:#ccc;fill-opacity:1;fill-rule:evenodd;stroke:#b3b3b3;stroke-width:.72227061;stroke-linecap:round;stroke-linejoin:round;stroke-miterlimit:4;stroke-dasharray:none;stroke-opacity:1" transform="matrix(5.98417 3.7192 -3.75619 6.2734 -105.89 -5184.032)"/><path d="M503.581 640.915s-1.527 3.35-2.888 4.573c-.772.693-2.81 1.4-2.81 1.4M490.569 642.875s1.865 2.407 3.2 3.118c1.22.648 4.113.895 4.113.895" style="fill:none;fill-opacity:1;fill-rule:evenodd;stroke:#b3b3b3;stroke-width:.72227061;stroke-linecap:round;stroke-linejoin:round;stroke-miterlimit:4;stroke-dasharray:none;stroke-opacity:1" transform="matrix(5.98417 3.7192 -3.75619 6.2734 -105.89 -5184.032)"/></g><path d="M315.574 213.258s.67.022.957.172c.268.14.64.64.64.64s-.102.493-.25.688c-.219.29-.884.642-.884.642M319.25 216.523s1.024-1.085 1.375-1.734c.235-.435.469-1.406.469-1.406s-.32-.715-.578-1c-.547-.603-1.985-1.422-1.985-1.422" style="fill:none;fill-opacity:1;stroke:#b3b3b3;stroke-width:.24226707;stroke-linecap:butt;stroke-linejoin:miter;stroke-miterlimit:4;stroke-dasharray:none;stroke-opacity:1" transform="matrix(-4.70223 20.65283 21.12142 4.5979 -2570.497 -6845.758)"/></g><path d="M-241.798 273.059c1.747-1.23 3.563-1.702 5.442-1.476-.041.319-.121.625-.523.83.936-.191 1.726.205 2.518.592-.19.38-.445.68-.91.71 1.047.259 1.855.776 2.228 1.76-.836.76-1.774.95-2.786.717.322.13.546.435.662.938-.962.198-1.786.026-2.541-.334.308.249.373.578.295.955-2.784-.283-3.674-1.987-4.63-3.642" style="fill:url(#q);fill-opacity:1;fill-rule:evenodd;stroke:#b3b3b3;stroke-width:.26458332;stroke-linecap:round;stroke-linejoin:round;stroke-miterlimit:4;stroke-dasharray:none;stroke-opacity:1" transform="matrix(19.5924 0 0 19.5924 5076.393 -4589.267)"/><path d="M-255.697 269.344c-1.258-1.708-1.74-3.484-1.508-5.322.325.041.639.12.85.512-.197-.915.207-1.687.604-2.462.388.186.694.435.725.89.265-1.024.794-1.814 1.8-2.179.778.818.972 1.734.734 2.724.132-.315.445-.533.959-.647.203.94.027 1.747-.341 2.485.254-.301.59-.365.976-.288-.289 2.722-2.032 3.592-3.724 4.526" style="fill:url(#r);fill-opacity:1;fill-rule:evenodd;stroke:#b3b3b3;stroke-width:.26458332;stroke-linecap:round;stroke-linejoin:round;stroke-miterlimit:4;stroke-dasharray:none;stroke-opacity:1" transform="matrix(19.5924 0 0 19.5924 5076.393 -4589.267)"/><g style="fill:#ccc;fill-opacity:1;stroke:#b3b3b3;stroke-width:.24226707;stroke-miterlimit:4;stroke-dasharray:none;stroke-opacity:1"><g style="fill:#ccc;fill-opacity:1;stroke:#b3b3b3;stroke-width:.72227061;stroke-miterlimit:4;stroke-dasharray:none;stroke-opacity:1"><path d="m496.071 632.898 3.305 23.605" style="fill:#ccc;fill-opacity:1;fill-rule:evenodd;stroke:#b3b3b3;stroke-width:.72227061;stroke-linecap:round;stroke-linejoin:round;stroke-miterlimit:4;stroke-dasharray:none;stroke-opacity:1" transform="matrix(6.66771 2.35876 -2.27223 6.92162 -1753.815 -5030.811)"/><path d="M503.641 640.777s-1.551 3.452-2.948 4.71c-.77.696-2.81 1.401-2.81 1.401M490.26 642.44s2.023 2.745 3.509 3.553c1.212.659 4.113.895 4.113.895" style="fill:none;fill-opacity:1;fill-rule:evenodd;stroke:#b3b3b3;stroke-width:.72227061;stroke-linecap:round;stroke-linejoin:round;stroke-miterlimit:4;stroke-dasharray:none;stroke-opacity:1" transform="matrix(6.66771 2.35876 -2.27223 6.92162 -1753.815 -5030.811)"/></g><path d="M315.574 213.258s.672.018.957.172c.273.147.64.673.64.673s-.107.47-.25.655c-.22.29-.884.642-.884.642M319.25 216.523s1.024-1.085 1.375-1.734c.235-.435.469-1.406.469-1.406s-.318-.716-.578-1c-.539-.588-1.957-1.372-1.957-1.372" style="fill:none;fill-opacity:1;stroke:#b3b3b3;stroke-width:.24226707;stroke-linecap:butt;stroke-linejoin:miter;stroke-miterlimit:4;stroke-dasharray:none;stroke-opacity:1" transform="matrix(0 21.15845 21.63851 0 -4528.825 -6129.13)"/></g><path d="M-251.197 274.281c.848-1.934.924-3.77.29-5.515-.31.11-.598.252-.716.68-.011-.935-.578-1.603-1.137-2.274-.338.264-.581.572-.51 1.023-.487-.944-1.179-1.602-2.242-1.745-.577.964-.563 1.9-.11 2.815-.2-.28-.554-.426-1.08-.428.01.961.362 1.71.885 2.353-.315-.24-.658-.23-1.017-.074.887 2.596 2.782 3.075 4.641 3.627" style="fill:url(#s);fill-opacity:1;fill-rule:evenodd;stroke:#b3b3b3;stroke-width:.26458332;stroke-linecap:round;stroke-linejoin:round;stroke-miterlimit:4;stroke-dasharray:none;stroke-opacity:1" transform="matrix(19.5924 0 0 19.5924 5076.393 -4589.267)"/><g style="fill:#ccc;fill-opacity:1;stroke:#b3b3b3;stroke-width:.24226707;stroke-miterlimit:4;stroke-dasharray:none;stroke-opacity:1"><g style="fill:#ccc;fill-opacity:1;stroke:#b3b3b3;stroke-width:.72227061;stroke-miterlimit:4;stroke-dasharray:none;stroke-opacity:1"><path d="m496.071 632.898 3.305 23.605" style="fill:#ccc;fill-opacity:1;fill-rule:evenodd;stroke:#b3b3b3;stroke-width:.72227061;stroke-linecap:round;stroke-linejoin:round;stroke-miterlimit:4;stroke-dasharray:none;stroke-opacity:1" transform="matrix(-5.98417 3.7192 3.75619 6.2734 662.246 -5184.393)"/><path d="M503.581 640.915s-1.527 3.35-2.888 4.573c-.772.693-2.81 1.4-2.81 1.4M490.569 642.875s1.865 2.407 3.2 3.118c1.22.648 4.113.895 4.113.895" style="fill:none;fill-opacity:1;fill-rule:evenodd;stroke:#b3b3b3;stroke-width:.72227061;stroke-linecap:round;stroke-linejoin:round;stroke-miterlimit:4;stroke-dasharray:none;stroke-opacity:1" transform="matrix(-5.98417 3.7192 3.75619 6.2734 662.246 -5184.393)"/></g><path d="M315.574 213.258s.67.022.957.172c.268.14.64.64.64.64s-.102.493-.25.688c-.219.29-.884.642-.884.642M319.25 216.523s1.024-1.085 1.375-1.734c.235-.435.469-1.406.469-1.406s-.32-.715-.578-1c-.547-.603-1.985-1.422-1.985-1.422" style="fill:none;fill-opacity:1;stroke:#b3b3b3;stroke-width:.24226707;stroke-linecap:butt;stroke-linejoin:miter;stroke-miterlimit:4;stroke-dasharray:none;stroke-opacity:1" transform="matrix(4.70223 20.65283 -21.12142 4.5979 3126.853 -6846.12)"/></g><path d="M-248.072 273.04c-1.747-1.23-3.563-1.702-5.443-1.475.042.318.122.625.523.83-.936-.192-1.725.204-2.517.592.19.38.444.679.91.709-1.048.26-1.855.777-2.229 1.76.837.76 1.774.95 2.786.718-.321.129-.545.435-.661.937.961.199 1.786.027 2.54-.333-.307.248-.372.578-.294.955 2.784-.283 3.674-1.987 4.63-3.642" style="fill:url(#t);fill-opacity:1;fill-rule:evenodd;stroke:#b3b3b3;stroke-width:.26458332;stroke-linecap:round;stroke-linejoin:round;stroke-miterlimit:4;stroke-dasharray:none;stroke-opacity:1" transform="matrix(19.5924 0 0 19.5924 5076.393 -4589.267)"/><path d="M-243.502 272.463c.453-1.137 3.11-2.967.978-3.577.177-.512-.183-1.739-1.34-1.143-.432-1.132-1.788-1.088-2.127 0-1.158-.596-1.518.631-1.34 1.143-2.134.61.525 2.44.977 3.577 1.146 1.094 2.092 1.068 2.852 0z" style="fill:url(#u);fill-opacity:1;fill-rule:evenodd;stroke:#b3b3b3;stroke-width:.26458332;stroke-linecap:butt;stroke-linejoin:miter;stroke-miterlimit:4;stroke-dasharray:none;stroke-opacity:1" transform="matrix(19.5924 0 0 19.5924 5076.393 -4589.267)"/><g style="fill:#ccc;fill-opacity:1;stroke:#b3b3b3;stroke-width:.24226707;stroke-miterlimit:4;stroke-dasharray:none;stroke-opacity:1"><g style="fill:#ccc;fill-opacity:1;stroke:#b3b3b3;stroke-width:.72227061;stroke-miterlimit:4;stroke-dasharray:none;stroke-opacity:1"><path d="m496.071 632.898 3.305 23.605" style="fill:#ccc;fill-opacity:1;fill-rule:evenodd;stroke:#b3b3b3;stroke-width:.72227061;stroke-linecap:round;stroke-linejoin:round;stroke-miterlimit:4;stroke-dasharray:none;stroke-opacity:1" transform="matrix(2.41228 6.51979 7.07866 -2.22182 -5631.556 -1020.622)"/><path d="M503.581 640.915s-1.527 3.35-2.888 4.573c-.772.693-2.81 1.4-2.81 1.4M490.569 642.875s1.865 2.407 3.2 3.118c1.22.648 4.113.895 4.113.895" style="fill:none;fill-opacity:1;fill-rule:evenodd;stroke:#b3b3b3;stroke-width:.72227061;stroke-linecap:round;stroke-linejoin:round;stroke-miterlimit:4;stroke-dasharray:none;stroke-opacity:1" transform="matrix(2.41228 6.51979 7.07866 -2.22182 -5631.556 -1020.622)"/></g><path d="M315.574 213.258s.67.022.957.172c.268.14.64.64.64.64s-.102.493-.25.688c-.219.29-.884.642-.884.642M319.25 216.523s1.024-1.085 1.375-1.734c.235-.435.469-1.406.469-1.406s-.32-.715-.578-1c-.547-.603-1.985-1.422-1.985-1.422" style="fill:none;fill-opacity:1;stroke:#b3b3b3;stroke-width:.24226707;stroke-linecap:butt;stroke-linejoin:miter;stroke-miterlimit:4;stroke-dasharray:none;stroke-opacity:1" transform="matrix(21.63851 0 0 21.15845 -6754.793 -3734.068)"/></g><path d="M-248.805 272.86c-.622.064-.881 1.745.108 1.71.022.847.849 1.433 1.656.888.748.631 1.322.218 1.54-.43.95-.498.454-1.22.19-1.554l-1.237-1.816z" style="fill:url(#v);fill-opacity:1;fill-rule:evenodd;stroke:#b3b3b3;stroke-width:.26458332;stroke-linecap:butt;stroke-linejoin:miter;stroke-miterlimit:4;stroke-dasharray:none;stroke-opacity:1" transform="matrix(19.5924 0 0 19.5924 5076.393 -4589.267)"/><path d="M-248.089 269.642c-.26-.292-.997-.366-.942.48-.7.04-1.014.604-.543 1.28-.501.657-.145 1.138.396 1.307.436.8 1.018.357 1.288.123l1.467-.038c.097-1.335-.842-2.218-1.666-3.152z" style="fill:url(#w);fill-opacity:1;fill-rule:evenodd;stroke:#b3b3b3;stroke-width:.26458332;stroke-linecap:butt;stroke-linejoin:miter;stroke-miterlimit:4;stroke-dasharray:none;stroke-opacity:1" transform="matrix(19.5924 0 0 19.5924 5076.393 -4589.267)"/><g style="fill:#ccc;fill-opacity:1;stroke:#b3b3b3;stroke-width:.24226707;stroke-miterlimit:4;stroke-dasharray:none;stroke-opacity:1"><g style="fill:#ccc;fill-opacity:1;stroke:#b3b3b3;stroke-width:.72227061;stroke-miterlimit:4;stroke-dasharray:none;stroke-opacity:1"><path d="m496.071 632.898 3.305 23.605" style="fill:#ccc;fill-opacity:1;fill-rule:evenodd;stroke:#b3b3b3;stroke-width:.72227061;stroke-linecap:round;stroke-linejoin:round;stroke-miterlimit:4;stroke-dasharray:none;stroke-opacity:1" transform="matrix(-2.41228 6.51979 -7.07866 -2.22182 6187.912 -1020.26)"/><path d="M503.581 640.915s-1.527 3.35-2.888 4.573c-.772.693-2.81 1.4-2.81 1.4M490.569 642.875s1.865 2.407 3.2 3.118c1.22.648 4.113.895 4.113.895" style="fill:none;fill-opacity:1;fill-rule:evenodd;stroke:#b3b3b3;stroke-width:.72227061;stroke-linecap:round;stroke-linejoin:round;stroke-miterlimit:4;stroke-dasharray:none;stroke-opacity:1" transform="matrix(-2.41228 6.51979 -7.07866 -2.22182 6187.912 -1020.26)"/></g><path d="M315.574 213.258s.67.022.957.172c.268.14.64.64.64.64s-.102.493-.25.688c-.219.29-.884.642-.884.642M319.25 216.523s1.024-1.085 1.375-1.734c.235-.435.469-1.406.469-1.406s-.32-.715-.578-1c-.547-.603-1.985-1.422-1.985-1.422" style="fill:none;fill-opacity:1;stroke:#b3b3b3;stroke-width:.24226707;stroke-linecap:butt;stroke-linejoin:miter;stroke-miterlimit:4;stroke-dasharray:none;stroke-opacity:1" transform="matrix(-21.63851 0 0 21.15845 7311.15 -3733.707)"/></g><path d="M-241.014 272.86c.622.064.88 1.745-.108 1.71-.022.847-.85 1.433-1.657.888-.748.631-1.322.218-1.539-.43-.951-.498-.455-1.22-.191-1.554l1.237-1.816z" style="fill:url(#x);fill-opacity:1;fill-rule:evenodd;stroke:#b3b3b3;stroke-width:.26458332;stroke-linecap:butt;stroke-linejoin:miter;stroke-miterlimit:4;stroke-dasharray:none;stroke-opacity:1" transform="matrix(19.5924 0 0 19.5924 5076.393 -4589.267)"/><path d="M-241.767 269.642c.26-.292.997-.366.942.48.7.04 1.014.604.543 1.28.502.657.146 1.138-.396 1.307-.435.8-1.018.357-1.288.123l-1.467-.038c-.968-1.452 1-2.13 1.666-3.152z" style="fill:url(#y);fill-opacity:1;fill-rule:evenodd;stroke:#b3b3b3;stroke-width:.26458332;stroke-linecap:butt;stroke-linejoin:miter;stroke-miterlimit:4;stroke-dasharray:none;stroke-opacity:1" transform="matrix(19.5924 0 0 19.5924 5076.393 -4589.267)"/><g style="fill:#ccc;fill-opacity:1;stroke:#b3b3b3;stroke-width:.21682777;stroke-miterlimit:4;stroke-dasharray:none;stroke-opacity:1"><g style="fill:#ccc;fill-opacity:1;stroke:#b3b3b3;stroke-width:.64642847;stroke-miterlimit:4;stroke-dasharray:none;stroke-opacity:1"><path d="M371.843 548.198c.123-3.166.789-6.391 2.828-9.318M372.853 548.104c.123-3.167 1.42-5.224 3.396-7.014M370.361 548.198c-.123-3.166-.788-6.391-2.828-9.318M369.351 548.104c-.123-3.167-1.42-5.224-3.396-7.014" style="fill:none;fill-opacity:1;fill-rule:evenodd;stroke:#b3b3b3;stroke-width:.64642847;stroke-linecap:round;stroke-linejoin:round;stroke-miterlimit:4;stroke-dasharray:none;stroke-opacity:1" transform="matrix(7.948 0 0 8.09099 -2671.197 -3674.103)"/></g><g style="fill:#ccc;fill-opacity:1;stroke:#b3b3b3;stroke-width:.64642841;stroke-miterlimit:4;stroke-dasharray:none;stroke-opacity:1"><path d="m376.26 545.423 2.014-3.009M376.292 546.37l3.608-2.744M376.19 546.782l4.145-.927" style="fill:none;fill-opacity:1;fill-rule:evenodd;stroke:#b3b3b3;stroke-width:.64642841;stroke-linecap:round;stroke-linejoin:round;stroke-miterlimit:4;stroke-dasharray:none;stroke-opacity:1" transform="matrix(1.57478 7.93058 7.79043 -1.60311 -4601.097 -1353.81)"/></g><g style="fill:#ccc;fill-opacity:1;stroke:#b3b3b3;stroke-width:.64642847;stroke-miterlimit:4;stroke-dasharray:none;stroke-opacity:1"><path d="m376.26 545.423 2.014-3.009M376.292 546.37l3.608-2.744M376.19 546.782l4.145-.927" style="fill:none;fill-opacity:1;fill-rule:evenodd;stroke:#b3b3b3;stroke-width:.64642847;stroke-linecap:round;stroke-linejoin:round;stroke-miterlimit:4;stroke-dasharray:none;stroke-opacity:1" transform="matrix(-1.57478 7.93058 -7.79043 -1.60311 5157.454 -1353.448)"/></g><g style="fill:#ccc;fill-opacity:1;stroke:#b3b3b3;stroke-width:.64642847;stroke-miterlimit:4;stroke-dasharray:none;stroke-opacity:1"><path d="m376.483 545.78 3.099-2.47M376.292 546.37l3.474-1.654M376.19 546.782l3.818-.474" style="fill:none;fill-opacity:1;fill-rule:evenodd;stroke:#b3b3b3;stroke-width:.64642847;stroke-linecap:round;stroke-linejoin:round;stroke-miterlimit:4;stroke-dasharray:none;stroke-opacity:1" transform="matrix(7.948 0 0 8.09099 -2677.89 -3674.103)"/></g><g style="fill:#ccc;fill-opacity:1;stroke:#b3b3b3;stroke-width:.64642847;stroke-miterlimit:4;stroke-dasharray:none;stroke-opacity:1"><path d="m366.326 546.138-3.544-2.829M366.072 546.37l-3.474-1.654M366.174 546.782l-3.818-.474" style="fill:none;fill-opacity:1;fill-rule:evenodd;stroke:#b3b3b3;stroke-width:.64642847;stroke-linecap:round;stroke-linejoin:round;stroke-miterlimit:4;stroke-dasharray:none;stroke-opacity:1" transform="matrix(7.948 0 0 8.09099 -2664.407 -3674.103)"/></g><path d="M-462.201 155.036c-.173 0-.34.1-.416.244a.392.392 0 0 0-.052.228.437.437 0 0 0 .167.335c.018.019.049.03.063.048v2.676h.49l.001-2.68a.462.462 0 0 0 .228-.332.442.442 0 0 0-.075-.315.484.484 0 0 0-.406-.204z" style="opacity:1;fill:#ccc;fill-opacity:1;stroke:#b3b3b3;stroke-width:.21682777;stroke-linecap:round;stroke-linejoin:miter;stroke-miterlimit:4;stroke-dasharray:none;stroke-opacity:1" transform="matrix(22.99726 0 0 24.85388 10907.86 -3172.492)"/><path d="M-463.806 157.653v0c0-.115-.038-.203.08-.328.247.392.765.884 1.517.885.752-.002 1.27-.493 1.516-.885.119.125.08.213.08.328v0c0 .61-.726 1.105-1.596 1.107-.87-.001-1.597-.496-1.597-1.107z" style="opacity:1;fill:#ccc;fill-opacity:1;stroke:#b3b3b3;stroke-width:.21682777;stroke-linecap:round;stroke-linejoin:round;stroke-miterlimit:4;stroke-dasharray:none;stroke-opacity:1" transform="matrix(22.99726 0 0 24.85388 10907.86 -3172.492)"/></g></g></svg>